<svg enable-background="new 0 0 41.915 41.916" height="41.916" viewBox="0 0 41.915 41.916" width="41.915" xmlns="http://www.w3.org/2000/svg"><path d="m11.214 20.956c0 3.091-2.509 5.589-5.607 5.589-3.097-.001-5.607-2.499-5.607-5.589 0-3.082 2.511-5.585 5.607-5.585 3.098 0 5.607 2.503 5.607 5.585z"/><path d="m26.564 20.956c0 3.091-2.509 5.589-5.606 5.589s-5.607-2.498-5.607-5.589c0-3.082 2.511-5.585 5.607-5.585 3.098 0 5.606 2.503 5.606 5.585z"/><path d="m41.915 20.956c0 3.091-2.509 5.589-5.607 5.589-3.097 0-5.606-2.498-5.606-5.589 0-3.082 2.511-5.585 5.606-5.585 3.098 0 5.607 2.503 5.607 5.585z"/></svg>